<?xml version="1.0" encoding="UTF-8" standalone="no"?><!-- Generator: Gravit.io --><svg xmlns="http://www.w3.org/2000/svg" xmlns:xlink="http://www.w3.org/1999/xlink" style="isolation:isolate" viewBox="0 0 512 512" width="512pt" height="512pt"><defs><clipPath id="_clipPath_rsLhEd4ASznJ1fXWWOJUFWZtStDOcpFk"><rect width="512" height="512"/></clipPath></defs><g clip-path="url(#_clipPath_rsLhEd4ASznJ1fXWWOJUFWZtStDOcpFk)"><circle vector-effect="non-scaling-stroke" cx="256" cy="255" r="256" fill="rgb(0,150,136)"/><path d=" M 254.109 -0.955 C 254.737 -0.969 255.368 -0.971 256 -0.971 C 397.29 -0.971 512 113.739 512 255.029 C 512 395.184 399.125 509.185 259.397 511" fill="rgb(0,0,0)" fill-opacity="0.05"/><path d=" M 425.207 159.227 Q 433.396 170.77 432.98 190.917 Q 415.622 242.92 379.763 276.423 Q 367.644 291.211 337.908 288.381 Q 306.943 282.872 284.691 268.649 L 266.155 257.289 Q 261.969 252.505 251.804 253.701 Q 217.323 284.993 154.938 288.381 Q 133.512 282.9 122.052 267.454 L 111.887 254.897 L 111.289 365.516 L 111.289 394.217 C 112.212 397.68 113.356 403.371 109.495 405.577 L 109.495 405.577 L 105.907 406.773 L 101.722 403.784 C 99.256 400.438 99.782 395.637 100.526 391.825 L 100.526 391.825 L 100.526 361.928 L 100.526 241.144 L 100.526 238.753 Q 79.468 218.552 79 177.763 Q 79.868 166.672 85.577 160.423 L 87.371 163.412 C 84.036 165.635 85.189 171.044 86.175 174.175 C 88.189 180.568 92.087 186.369 97.536 190.319 L 97.536 190.319 L 103.515 193.907 L 104.113 189.722 C 100.429 187.17 101.902 181.261 102.918 177.763 L 102.918 177.763 L 105.907 171.185 L 107.701 171.783 Q 109.416 186.81 119.062 193.907 Q 138.022 202.452 163.309 204.67 L 162.711 202.876 L 159.124 196.897 L 162.114 195.103 C 183.356 198.383 204.339 205.914 220.712 220.216 L 220.712 220.216 L 226.691 210.649 L 232.67 208.258 L 236.258 209.454 L 241.041 211.845 L 241.639 208.856 C 238.017 206.682 240.359 200.04 241.35 197.056 C 243.729 189.888 247.742 183.668 254.196 179.557 L 254.196 179.557 L 260.773 184.938 C 267.57 190.764 268.546 200.487 267.949 208.856 L 267.949 208.856 L 266.753 211.247 L 268.547 210.649 L 275.722 208.258 C 279.812 209.147 283.576 211.263 285.887 214.835 L 285.887 214.835 L 288.877 221.412 C 305.74 206.214 327.69 198.379 349.866 195.103 L 349.866 195.103 L 352.856 196.897 L 346.877 204.072 L 349.866 204.67 Q 377.621 202.527 395.908 190.917 Q 401.93 183.187 403.681 171.185 L 406.671 172.979 C 409.188 178.517 408.79 185.067 407.866 190.917 L 407.866 190.917 L 406.671 193.309 L 408.464 193.907 L 421.021 182.546 C 426.235 176.168 426.187 166.948 425.207 159.227 L 425.207 159.227 Z  M 254.196 189.124 C 258.554 195.899 258.265 204.79 257.186 212.443 L 257.186 212.443 L 254.196 223.804 C 251.364 215.174 250.801 205.915 251.206 196.897 L 251.206 196.897 L 254.196 189.124 L 254.196 189.124 Z  M 90.361 198.691 Q 108.199 214.337 136.402 219.618 Q 135.206 223.804 128.629 222.608 Q 101.917 217.171 90.361 198.691 L 90.361 198.691 Z  M 421.619 198.691 L 410.856 210.649 Q 399.175 221.092 378.567 222.608 Q 372.588 219.618 378.567 216.629 Q 405.475 213.041 421.619 198.691 L 421.619 198.691 Z  M 132.217 204.67 Q 147.293 215.903 169.887 219.618 Q 167.271 223.58 159.722 222.608 Q 139.632 218.962 132.217 204.67 L 132.217 204.67 Z  M 379.763 204.67 L 370.196 215.433 C 364.546 220.205 357.105 222.114 349.866 222.608 L 349.866 222.608 L 342.093 219.618 C 355.546 217.507 368.844 212.992 379.763 204.67 L 379.763 204.67 L 379.763 204.67 Z  M 180.052 211.845 C 186.345 210.877 190.539 214.477 188.993 220.936 C 187.833 225.779 180.209 226.954 177.445 222.973 C 177.248 222.689 177.157 222.342 177.062 222.01 L 177.062 222.01 L 175.866 217.227 L 180.052 211.845 L 180.052 211.845 Z  M 327.145 211.845 C 331.721 211.141 336.34 212.583 336.31 217.871 C 336.292 221.035 335.519 224.304 331.928 225 C 327.356 225.887 322.733 224.144 322.763 218.974 C 322.781 215.727 323.565 212.641 327.145 211.845 L 327.145 211.845 L 327.145 211.845 Z  M 232.67 216.629 L 238.052 218.423 L 242.835 229.185 L 241.041 229.783 L 232.072 223.206 L 230.877 218.423 L 232.67 216.629 L 232.67 216.629 Z  M 274.526 216.629 L 278.712 218.423 C 279.047 223.116 277.197 226.97 272.134 227.392 L 272.134 227.392 L 268.547 228.588 L 267.949 225.598 L 274.526 216.629 L 274.526 216.629 Z  M 196.794 220.216 C 201.414 219.487 206.313 223.695 202.624 228.438 C 202.093 229.12 201.227 229.614 200.382 229.783 C 195.664 230.727 190.969 226.168 194.552 221.562 C 195.127 220.823 195.923 220.417 196.794 220.216 L 196.794 220.216 L 196.794 220.216 Z  M 311.598 220.216 C 317.051 219.355 321.881 226.006 316.083 229.484 C 313.564 230.996 309.293 229.76 308.609 226.794 L 308.609 226.794 L 311.598 220.216 L 311.598 220.216 Z  M 139.392 227.392 Q 191.717 225.293 214.134 253.103 Q 198.468 264.344 175.268 268.052 L 172.876 268.052 C 160.544 268.285 147.09 265.359 139.99 254.299 L 139.99 254.299 L 129.825 234.567 L 120.856 231.577 L 139.392 227.392 L 139.392 227.392 Z  M 348.67 227.392 L 351.062 227.392 C 363.245 226.476 376.066 226.957 387.537 231.577 L 387.537 231.577 L 377.97 235.165 Q 373.301 252.62 360.629 262.072 Q 351.66 268.649 335.516 268.052 Q 310.365 265.1 294.258 253.103 Q 312.877 231.66 348.67 227.392 L 348.67 227.392 Z  M 209.949 230.979 L 214.134 232.773 L 212.34 236.959 L 208.155 235.165 L 209.949 230.979 L 209.949 230.979 Z  M 299.639 230.979 L 303.825 231.577 C 304.21 233.501 304.308 236.2 302.031 236.959 L 302.031 236.959 L 297.846 235.165 L 299.639 230.979 L 299.639 230.979 Z " fill-rule="evenodd" fill="rgb(255,255,255)"/></g></svg>